<svg width="13" height="12" viewBox="0 0 13 12" fill="none" xmlns="http://www.w3.org/2000/svg">
<path d="M10.6494 4.89988L6.89941 8.64988C6.84716 8.70232 6.78506 8.74393 6.71669 8.77232C6.64831 8.80071 6.57501 8.81533 6.50098 8.81533C6.42694 8.81533 6.35364 8.80071 6.28526 8.77232C6.21689 8.74393 6.1548 8.70232 6.10254 8.64988L2.35254 4.89988C2.24687 4.79421 2.1875 4.65089 2.1875 4.50144C2.1875 4.352 2.24687 4.20868 2.35254 4.10301C2.45821 3.99733 2.60153 3.93797 2.75098 3.93797C2.90042 3.93797 3.04374 3.99733 3.14941 4.10301L6.50144 7.45504L9.85348 4.10254C9.95915 3.99687 10.1025 3.9375 10.2519 3.9375C10.4014 3.9375 10.5447 3.99687 10.6504 4.10254C10.756 4.20821 10.8154 4.35153 10.8154 4.50098C10.8154 4.65042 10.756 4.79374 10.6504 4.89941L10.6494 4.89988Z" fill="#000000"/>
</svg>
